<?xml version="1.0" encoding="utf-8"?>
<!-- Generator: Adobe Illustrator 14.0.0, SVG Export Plug-In  -->
<!DOCTYPE svg PUBLIC "-//W3C//DTD SVG 1.1//EN" "http://www.w3.org/Graphics/SVG/1.1/DTD/svg11.dtd" [
	<!ENTITY ns_flows "http://ns.adobe.com/Flows/1.0/">
]>
<svg version="1.1"
	 xmlns="http://www.w3.org/2000/svg" xmlns:xlink="http://www.w3.org/1999/xlink" xmlns:a="http://ns.adobe.com/AdobeSVGViewerExtensions/3.0/"
	 x="0px" y="0px" width="625px" height="400px" viewBox="-0.99 -2.391 625 400" enable-background="new -0.99 -2.391 625 400"
	 xml:space="preserve">
<defs>
</defs>
<path fill="#4D4D4D" d="M385.588,185.258c3.799-43.753,40.15-78.427,85.025-79.169c26.994-0.443,51.316,11.49,67.553,30.559
	l80.814-68.718C582.899,25.548,528.858-0.961,468.866,0.033c-53.764,0.886-102.018,23.697-136.404,59.763
	c3.24,3.408,6.393,6.94,9.428,10.633C369.668,104.235,384.016,144.665,385.588,185.258z"/>
<linearGradient id="SVGID_1_" gradientUnits="userSpaceOnUse" x1="416.521" y1="4.354" x2="559.0217" y2="139.8537">
	<stop  offset="0" style="stop-color:#FFFFFF"/>
	<stop  offset="1" style="stop-color:#FFFFFF;stop-opacity:0"/>
</linearGradient>
<path fill="url(#SVGID_1_)" d="M467.366,1.533c59.93-0.993,113.92,25.463,150.002,67.768l1.613-1.371
	C582.899,25.548,528.858-0.961,468.866,0.033c-52.475,0.865-99.689,22.621-133.896,57.195
	C369.049,23.525,415.655,2.386,467.366,1.533z"/>
<linearGradient id="SVGID_2_" gradientUnits="userSpaceOnUse" x1="397.3989" y1="132.811" x2="397.3989" y2="184.2302">
	<stop  offset="0" style="stop-color:#F2F2F2;stop-opacity:0"/>
	<stop  offset="1" style="stop-color:#B3B3B3"/>
</linearGradient>
<path fill="url(#SVGID_2_)" d="M385.198,178.565c0.164,2.23,0.305,4.461,0.391,6.692c1.768-20.348,10.582-38.726,24.012-52.647
	C397.206,144.85,388.473,160.767,385.198,178.565z"/>
<linearGradient id="SVGID_3_" gradientUnits="userSpaceOnUse" x1="239.9746" y1="47.7939" x2="620.8396" y2="601.0908">
	<stop  offset="0" style="stop-color:#4D4D4D"/>
	<stop  offset="1" style="stop-color:#000000"/>
</linearGradient>
<path fill="url(#SVGID_3_)" d="M341.889,70.429c-3.035-3.693-6.188-7.226-9.428-10.633C294.99,20.413,244.169,0.048,192.947,0
	l-0.044,106.078c25.049,0.024,49.886,10.831,67.026,31.691c11.565,14.073,17.947,30.699,19.402,47.574
	c0.215,2.507,0.333,5.019,0.331,7.53h105.62c-0.002-2.564,0.088-5.105,0.307-7.616C384.016,144.665,369.668,104.235,341.889,70.429z
	"/>
<linearGradient id="SVGID_4_" gradientUnits="userSpaceOnUse" x1="218.5444" y1="-13.6602" x2="402.5428" y2="170.8386">
	<stop  offset="0" style="stop-color:#FFFFFF"/>
	<stop  offset="1" style="stop-color:#FFFFFF;stop-opacity:0"/>
</linearGradient>
<path fill="url(#SVGID_4_)" d="M341.889,70.429c-3.035-3.693-6.188-7.226-9.428-10.633C294.99,20.413,244.169,0.048,192.947,0
	l-0.001,1.52c50.713,0.441,100.91,20.777,138.015,59.776c3.24,3.408,6.393,6.94,9.428,10.633
	c27.779,33.807,42.127,74.236,43.699,114.829c-0.176,2.019-0.252,4.062-0.279,6.116h1.473c-0.002-2.564,0.088-5.105,0.307-7.616
	C384.016,144.665,369.668,104.235,341.889,70.429z"/>
<linearGradient id="SVGID_5_" gradientUnits="userSpaceOnUse" x1="30.6387" y1="240.8564" x2="428.2386" y2="369.6564">
	<stop  offset="0" style="stop-color:#4D4D4D"/>
	<stop  offset="1" style="stop-color:#000000"/>
</linearGradient>
<path fill="url(#SVGID_5_)" d="M247.97,269.403c-37.034,30.43-91.726,25.078-122.157-11.959
	c-17.141-20.859-22.924-47.326-18.094-71.899L3.648,165.013c-10.743,54.612,2.115,113.419,40.207,159.773
	c67.623,82.301,189.16,94.2,271.461,26.574c6.111-5.023,11.824-10.35,17.156-15.928c-31.39-32.902-51.296-76.922-53.144-125.708
	C277.406,232.214,266.787,253.942,247.97,269.403z"/>
<linearGradient id="SVGID_6_" gradientUnits="userSpaceOnUse" x1="223.2095" y1="225.6904" x2="302.2483" y2="359.1325">
	<stop  offset="0" style="stop-color:#000000"/>
	<stop  offset="1" style="stop-color:#000000;stop-opacity:0"/>
</linearGradient>
<path fill="url(#SVGID_6_)" d="M279.368,210.686l-26.445,174.987c22.131-7.244,43.317-18.638,62.394-34.312
	c6.111-5.023,11.824-10.35,17.156-15.928C302.175,303.675,282.356,257.447,279.368,210.686z"/>
<radialGradient id="SVGID_7_" cx="481.9116" cy="217.0752" r="211.9651" fx="641.9291" fy="316.7088" gradientUnits="userSpaceOnUse">
	<stop  offset="0" style="stop-color:#000000;stop-opacity:0.7"/>
	<stop  offset="0.8587" style="stop-color:#000000;stop-opacity:0.0989"/>
	<stop  offset="1" style="stop-color:#000000;stop-opacity:0"/>
</radialGradient>
<path fill="url(#SVGID_7_)" d="M279.368,210.686l-26.445,174.987c22.131-7.244,43.317-18.638,62.394-34.312
	c6.111-5.023,11.824-10.35,17.156-15.928C302.175,303.675,282.356,257.447,279.368,210.686z"/>
<radialGradient id="SVGID_8_" cx="143.5103" cy="176.8096" r="140.179" gradientUnits="userSpaceOnUse">
	<stop  offset="0" style="stop-color:#FFFFFF"/>
	<stop  offset="1" style="stop-color:#FFFFFF;stop-opacity:0"/>
</radialGradient>
<path fill="url(#SVGID_8_)" d="M106.219,187.045c-4.83,24.573,0.953,51.04,18.094,71.899
	c30.432,37.037,85.123,42.389,122.157,11.959c2.575-2.115,4.98-4.357,7.247-6.693c-1.828,1.794-3.73,3.537-5.747,5.193
	c-37.034,30.43-91.726,25.078-122.157-11.959c-17.141-20.859-22.924-47.326-18.094-71.899L3.648,165.013
	c-0.114,0.576-0.209,1.155-0.317,1.733L106.219,187.045z"/>
<path d="M279.329,209.725c-0.237,2.776,0,0-0.38,3.575c0,47.717,22.098,92.264,52.024,123.633c-0.975,1.021-1.979,2.023-2.979,3.027
	c1.52-1.492,3.018-2.998,4.479-4.527C301.083,302.53,281.177,258.511,279.329,209.725z"/>
<linearGradient id="SVGID_9_" gradientUnits="userSpaceOnUse" x1="343.0405" y1="278.6797" x2="668.6406" y2="369.0794">
	<stop  offset="0" style="stop-color:#4D4D4D"/>
	<stop  offset="1" style="stop-color:#000000"/>
</linearGradient>
<path fill="url(#SVGID_9_)" d="M539.987,256.354c-15.598,19.602-39.51,32.326-66.504,32.771
	c-45.943,0.757-84.109-34.326-87.895-79.447c-0.164-1.95-0.287-3.913-0.32-5.899c-0.008-0.48,0.014-0.954,0.014-1.432h-105.62
	c-0.002,2.465-0.123,4.927-0.333,7.378c1.848,48.786,21.754,92.806,53.144,125.708c35.865,37.593,86.713,60.679,142.758,59.753
	c59.994-0.991,113.131-29.268,147.789-72.814L539.987,256.354z"/>
<radialGradient id="SVGID_10_" cx="378.4448" cy="202.9424" r="152.448" gradientUnits="userSpaceOnUse">
	<stop  offset="0" style="stop-color:#FFFFFF"/>
	<stop  offset="1" style="stop-color:#FFFFFF;stop-opacity:0"/>
</radialGradient>
<path fill="url(#SVGID_10_)" d="M383.782,203.847c0,0.478-0.021,0.951-0.014,1.432c0.033,1.986,0.156,3.949,0.32,5.899
	c3.785,45.121,41.951,80.204,87.895,79.447c23.922-0.393,45.406-10.442,60.846-26.362c-15.318,15.045-36.188,24.481-59.346,24.862
	c-45.943,0.757-84.109-34.326-87.895-79.447c-0.164-1.95-0.287-3.913-0.32-5.899c-0.008-0.48,0.014-0.954,0.014-1.432h-105.62
	c0,0.5-0.025,1-0.035,1.5H383.782z"/>
<linearGradient id="SVGID_11_" gradientUnits="userSpaceOnUse" x1="490.0015" y1="225.5859" x2="619.3345" y2="333.8525">
	<stop  offset="0" style="stop-color:#FFFFFF"/>
	<stop  offset="1" style="stop-color:#FFFFFF;stop-opacity:0"/>
</linearGradient>
<path fill="url(#SVGID_11_)" d="M539.987,256.354c-0.438,0.551-0.904,1.075-1.355,1.614l82.889,65.902
	c-4.203,5.284-8.686,10.336-13.414,15.147c5.281-5.258,10.27-10.811,14.914-16.647L539.987,256.354z"/>
<radialGradient id="SVGID_12_" cx="750.7104" cy="76.0103" r="394.6863" gradientUnits="userSpaceOnUse">
	<stop  offset="0" style="stop-color:#FFFFFF"/>
	<stop  offset="1" style="stop-color:#FFFFFF;stop-opacity:0"/>
</radialGradient>
<path fill="url(#SVGID_12_)" d="M539.987,256.354c-15.598,19.602-39.51,32.326-66.504,32.771
	c-45.943,0.757-84.109-34.326-87.895-79.447c-0.164-1.95-0.287-3.913-0.32-5.899c-0.008-0.48,0.014-0.954,0.014-1.432h-105.62
	c-0.002,2.465-0.123,4.927-0.333,7.378c1.848,48.786,21.754,92.806,53.144,125.708c35.865,37.593,86.713,60.679,142.758,59.753
	c59.994-0.991,113.131-29.268,147.789-72.814L539.987,256.354z"/>
<radialGradient id="SVGID_13_" cx="750.7104" cy="76.0093" r="394.6885" gradientUnits="userSpaceOnUse">
	<stop  offset="0" style="stop-color:#FFFFFF"/>
	<stop  offset="1" style="stop-color:#FFFFFF;stop-opacity:0"/>
</radialGradient>
<path fill="url(#SVGID_13_)" d="M385.588,185.258c3.799-43.753,40.15-78.427,85.025-79.169c26.994-0.443,51.316,11.49,67.553,30.559
	l80.814-68.718C582.899,25.548,528.858-0.961,468.866,0.033c-53.764,0.886-102.018,23.697-136.404,59.763
	c3.24,3.408,6.393,6.94,9.428,10.633C369.668,104.235,384.016,144.665,385.588,185.258z"/>
<radialGradient id="SVGID_14_" cx="618.7671" cy="246.8789" r="435.128" gradientUnits="userSpaceOnUse">
	<stop  offset="0" style="stop-color:#000000"/>
	<stop  offset="1" style="stop-color:#000000;stop-opacity:0"/>
</radialGradient>
<path fill="url(#SVGID_14_)" d="M341.889,70.429c-3.035-3.693-6.188-7.226-9.428-10.633C294.99,20.413,244.168,0.048,192.947,0
	l-0.044,106.078c25.049,0.024,49.886,10.831,67.026,31.691c11.565,14.073,17.947,30.699,19.402,47.574
	c0.216,2.507,0.333,5.019,0.331,7.53h105.62c-0.002-2.564,0.088-5.105,0.307-7.616C384.016,144.665,369.667,104.235,341.889,70.429z
	"/>
<radialGradient id="SVGID_15_" cx="306.71" cy="168.8096" r="162.5556" gradientUnits="userSpaceOnUse">
	<stop  offset="0" style="stop-color:#000000"/>
	<stop  offset="1" style="stop-color:#000000;stop-opacity:0"/>
</radialGradient>
<path fill="url(#SVGID_15_)" d="M539.987,256.354c-15.598,19.602-39.51,32.326-66.504,32.771
	c-45.943,0.757-84.109-34.326-87.895-79.447c-0.164-1.95-0.287-3.913-0.32-5.899c-0.008-0.48,0.014-0.954,0.014-1.432h-105.62
	c-0.002,2.465-0.123,4.927-0.333,7.378c1.848,48.786,21.754,92.806,53.144,125.708c35.865,37.593,86.713,60.679,142.758,59.753
	c59.994-0.991,113.131-29.268,147.789-72.814L539.987,256.354z"/>
</svg>
